<?xml version="1.0" encoding="utf-8"?>
<!-- Generator: Adobe Illustrator 23.0.4, SVG Export Plug-In . SVG Version: 6.00 Build 0)  -->
<svg version="1.1" id="Capa_1" xmlns="http://www.w3.org/2000/svg" xmlns:xlink="http://www.w3.org/1999/xlink" x="0px" y="0px"
	 viewBox="0 0 1080 630" style="enable-background:new 0 0 1080 630;" xml:space="preserve">
<style type="text/css">
	.st0{clip-path:url(#SVGID_2_);fill:#7B7B7B;}
	.st1{clip-path:url(#SVGID_2_);fill:#7A7A7A;}
	.st2{clip-path:url(#SVGID_2_);fill:#797979;}
	.st3{clip-path:url(#SVGID_2_);fill:#787878;}
	.st4{clip-path:url(#SVGID_2_);fill:#777777;}
	.st5{clip-path:url(#SVGID_2_);fill:#767676;}
	.st6{clip-path:url(#SVGID_2_);fill:#757575;}
	.st7{clip-path:url(#SVGID_2_);fill:#747474;}
	.st8{clip-path:url(#SVGID_2_);fill:#737373;}
	.st9{clip-path:url(#SVGID_2_);fill:#727272;}
	.st10{clip-path:url(#SVGID_2_);fill:#717171;}
	.st11{clip-path:url(#SVGID_2_);fill:#707070;}
	.st12{clip-path:url(#SVGID_2_);fill:#6F6F6F;}
	.st13{clip-path:url(#SVGID_2_);fill:#6E6E6E;}
	.st14{clip-path:url(#SVGID_2_);fill:#6D6D6D;}
	.st15{clip-path:url(#SVGID_2_);fill:#6C6C6C;}
	.st16{clip-path:url(#SVGID_2_);fill:#6A6A6A;}
	.st17{clip-path:url(#SVGID_2_);fill:#696969;}
	.st18{clip-path:url(#SVGID_2_);fill:#686868;}
	.st19{clip-path:url(#SVGID_2_);fill:#676767;}
	.st20{clip-path:url(#SVGID_2_);fill:#666666;}
	.st21{clip-path:url(#SVGID_2_);fill:#656565;}
	.st22{clip-path:url(#SVGID_2_);fill:#646464;}
	.st23{clip-path:url(#SVGID_2_);fill:#636363;}
	.st24{clip-path:url(#SVGID_2_);fill:#626262;}
	.st25{clip-path:url(#SVGID_2_);fill:#616161;}
	.st26{clip-path:url(#SVGID_2_);fill:#606060;}
	.st27{clip-path:url(#SVGID_2_);fill:#5F5F5F;}
	.st28{clip-path:url(#SVGID_2_);fill:#5E5E5E;}
	.st29{clip-path:url(#SVGID_4_);fill:#7B7B7B;}
	.st30{clip-path:url(#SVGID_4_);fill:#7A7A7A;}
	.st31{clip-path:url(#SVGID_4_);fill:#797979;}
	.st32{clip-path:url(#SVGID_4_);fill:#787878;}
	.st33{clip-path:url(#SVGID_4_);fill:#777777;}
	.st34{clip-path:url(#SVGID_4_);fill:#767676;}
	.st35{clip-path:url(#SVGID_4_);fill:#757575;}
	.st36{clip-path:url(#SVGID_4_);fill:#747474;}
	.st37{clip-path:url(#SVGID_4_);fill:#737373;}
	.st38{clip-path:url(#SVGID_4_);fill:#727272;}
	.st39{clip-path:url(#SVGID_4_);fill:#717171;}
	.st40{clip-path:url(#SVGID_4_);fill:#707070;}
	.st41{clip-path:url(#SVGID_4_);fill:#6F6F6F;}
	.st42{clip-path:url(#SVGID_4_);fill:#6E6E6E;}
	.st43{clip-path:url(#SVGID_4_);fill:#6D6D6D;}
	.st44{clip-path:url(#SVGID_4_);fill:#6C6C6C;}
	.st45{clip-path:url(#SVGID_4_);fill:#6A6A6A;}
	.st46{clip-path:url(#SVGID_4_);fill:#696969;}
	.st47{clip-path:url(#SVGID_4_);fill:#686868;}
	.st48{clip-path:url(#SVGID_4_);fill:#676767;}
	.st49{clip-path:url(#SVGID_4_);fill:#666666;}
	.st50{clip-path:url(#SVGID_4_);fill:#656565;}
	.st51{clip-path:url(#SVGID_4_);fill:#646464;}
	.st52{clip-path:url(#SVGID_4_);fill:#636363;}
	.st53{clip-path:url(#SVGID_4_);fill:#626262;}
	.st54{clip-path:url(#SVGID_4_);fill:#616161;}
	.st55{clip-path:url(#SVGID_4_);fill:#606060;}
	.st56{clip-path:url(#SVGID_4_);fill:#5F5F5F;}
	.st57{clip-path:url(#SVGID_6_);fill:#787878;}
	.st58{clip-path:url(#SVGID_6_);fill:#777777;}
	.st59{clip-path:url(#SVGID_6_);fill:#767676;}
	.st60{clip-path:url(#SVGID_6_);fill:#757575;}
	.st61{clip-path:url(#SVGID_6_);fill:#747474;}
	.st62{clip-path:url(#SVGID_6_);fill:#737373;}
	.st63{clip-path:url(#SVGID_6_);fill:#727272;}
	.st64{clip-path:url(#SVGID_6_);fill:#717171;}
	.st65{clip-path:url(#SVGID_6_);fill:#707070;}
	.st66{clip-path:url(#SVGID_6_);fill:#6F6F6F;}
	.st67{clip-path:url(#SVGID_6_);fill:#6E6E6E;}
	.st68{clip-path:url(#SVGID_6_);fill:#6D6D6D;}
	.st69{clip-path:url(#SVGID_6_);fill:#6C6C6C;}
	.st70{clip-path:url(#SVGID_6_);fill:#6A6A6A;}
	.st71{clip-path:url(#SVGID_6_);fill:#696969;}
	.st72{clip-path:url(#SVGID_6_);fill:#686868;}
	.st73{clip-path:url(#SVGID_6_);fill:#676767;}
	.st74{clip-path:url(#SVGID_6_);fill:#666666;}
	.st75{clip-path:url(#SVGID_6_);fill:#656565;}
	.st76{clip-path:url(#SVGID_6_);fill:#646464;}
	.st77{clip-path:url(#SVGID_6_);fill:#636363;}
	.st78{clip-path:url(#SVGID_6_);fill:#7C7C7C;}
	.st79{clip-path:url(#SVGID_6_);fill:#7B7B7B;}
	.st80{clip-path:url(#SVGID_6_);fill:#7A7A7A;}
	.st81{clip-path:url(#SVGID_6_);fill:#797979;}
	.st82{clip-path:url(#SVGID_6_);fill:#626262;}
	.st83{clip-path:url(#SVGID_6_);fill:#616161;}
	.st84{clip-path:url(#SVGID_6_);fill:#606060;}
	.st85{clip-path:url(#SVGID_6_);fill:#5F5F5F;}
	.st86{clip-path:url(#SVGID_8_);fill:#7C7C7C;}
	.st87{clip-path:url(#SVGID_8_);fill:#7B7B7B;}
	.st88{clip-path:url(#SVGID_8_);fill:#7A7A7A;}
	.st89{clip-path:url(#SVGID_8_);fill:#797979;}
	.st90{clip-path:url(#SVGID_8_);fill:#787878;}
	.st91{clip-path:url(#SVGID_8_);fill:#777777;}
	.st92{clip-path:url(#SVGID_8_);fill:#767676;}
	.st93{clip-path:url(#SVGID_8_);fill:#757575;}
	.st94{clip-path:url(#SVGID_8_);fill:#747474;}
	.st95{clip-path:url(#SVGID_8_);fill:#737373;}
	.st96{clip-path:url(#SVGID_8_);fill:#727272;}
	.st97{clip-path:url(#SVGID_8_);fill:#717171;}
	.st98{clip-path:url(#SVGID_8_);fill:#707070;}
	.st99{clip-path:url(#SVGID_8_);fill:#6F6F6F;}
	.st100{clip-path:url(#SVGID_8_);fill:#6E6E6E;}
	.st101{clip-path:url(#SVGID_8_);fill:#6D6D6D;}
	.st102{clip-path:url(#SVGID_8_);fill:#6C6C6C;}
	.st103{clip-path:url(#SVGID_8_);fill:#6A6A6A;}
	.st104{clip-path:url(#SVGID_8_);fill:#696969;}
	.st105{clip-path:url(#SVGID_8_);fill:#686868;}
	.st106{clip-path:url(#SVGID_8_);fill:#676767;}
	.st107{clip-path:url(#SVGID_8_);fill:#666666;}
	.st108{clip-path:url(#SVGID_8_);fill:#656565;}
	.st109{clip-path:url(#SVGID_8_);fill:#646464;}
	.st110{clip-path:url(#SVGID_8_);fill:#636363;}
	.st111{clip-path:url(#SVGID_8_);fill:#626262;}
	.st112{clip-path:url(#SVGID_8_);fill:#616161;}
	.st113{clip-path:url(#SVGID_8_);fill:#606060;}
	.st114{clip-path:url(#SVGID_10_);fill:#7C7C7C;}
	.st115{clip-path:url(#SVGID_10_);fill:#7B7B7B;}
	.st116{clip-path:url(#SVGID_10_);fill:#7A7A7A;}
	.st117{clip-path:url(#SVGID_10_);fill:#797979;}
	.st118{clip-path:url(#SVGID_10_);fill:#787878;}
	.st119{clip-path:url(#SVGID_10_);fill:#777777;}
	.st120{clip-path:url(#SVGID_10_);fill:#767676;}
	.st121{clip-path:url(#SVGID_10_);fill:#757575;}
	.st122{clip-path:url(#SVGID_10_);fill:#747474;}
	.st123{clip-path:url(#SVGID_10_);fill:#737373;}
	.st124{clip-path:url(#SVGID_10_);fill:#727272;}
	.st125{clip-path:url(#SVGID_10_);fill:#717171;}
	.st126{clip-path:url(#SVGID_10_);fill:#707070;}
	.st127{clip-path:url(#SVGID_10_);fill:#6F6F6F;}
	.st128{clip-path:url(#SVGID_10_);fill:#6E6E6E;}
	.st129{clip-path:url(#SVGID_10_);fill:#6D6D6D;}
	.st130{clip-path:url(#SVGID_10_);fill:#6C6C6C;}
	.st131{clip-path:url(#SVGID_10_);fill:#6A6A6A;}
	.st132{clip-path:url(#SVGID_10_);fill:#696969;}
	.st133{clip-path:url(#SVGID_10_);fill:#686868;}
	.st134{clip-path:url(#SVGID_10_);fill:#676767;}
	.st135{clip-path:url(#SVGID_10_);fill:#666666;}
	.st136{clip-path:url(#SVGID_10_);fill:#656565;}
	.st137{clip-path:url(#SVGID_10_);fill:#646464;}
	.st138{clip-path:url(#SVGID_10_);fill:#636363;}
	.st139{clip-path:url(#SVGID_10_);fill:#626262;}
	.st140{clip-path:url(#SVGID_10_);fill:#616161;}
	.st141{clip-path:url(#SVGID_10_);fill:#606060;}
	.st142{clip-path:url(#SVGID_12_);fill:#7C7C7C;}
	.st143{clip-path:url(#SVGID_12_);fill:#7B7B7B;}
	.st144{clip-path:url(#SVGID_12_);fill:#7A7A7A;}
	.st145{clip-path:url(#SVGID_12_);fill:#797979;}
	.st146{clip-path:url(#SVGID_12_);fill:#787878;}
	.st147{clip-path:url(#SVGID_12_);fill:#777777;}
	.st148{clip-path:url(#SVGID_12_);fill:#767676;}
	.st149{clip-path:url(#SVGID_12_);fill:#757575;}
	.st150{clip-path:url(#SVGID_12_);fill:#747474;}
	.st151{clip-path:url(#SVGID_12_);fill:#737373;}
	.st152{clip-path:url(#SVGID_12_);fill:#727272;}
	.st153{clip-path:url(#SVGID_12_);fill:#717171;}
	.st154{clip-path:url(#SVGID_12_);fill:#707070;}
	.st155{clip-path:url(#SVGID_12_);fill:#6F6F6F;}
	.st156{clip-path:url(#SVGID_12_);fill:#6E6E6E;}
	.st157{clip-path:url(#SVGID_12_);fill:#6D6D6D;}
	.st158{clip-path:url(#SVGID_12_);fill:#6C6C6C;}
	.st159{clip-path:url(#SVGID_12_);fill:#6A6A6A;}
	.st160{clip-path:url(#SVGID_12_);fill:#696969;}
	.st161{clip-path:url(#SVGID_12_);fill:#686868;}
	.st162{clip-path:url(#SVGID_12_);fill:#676767;}
	.st163{clip-path:url(#SVGID_12_);fill:#666666;}
	.st164{clip-path:url(#SVGID_12_);fill:#656565;}
	.st165{clip-path:url(#SVGID_12_);fill:#646464;}
	.st166{clip-path:url(#SVGID_12_);fill:#636363;}
	.st167{clip-path:url(#SVGID_12_);fill:#626262;}
	.st168{clip-path:url(#SVGID_12_);fill:#616161;}
	.st169{clip-path:url(#SVGID_14_);fill:#7A7A7A;}
	.st170{clip-path:url(#SVGID_14_);fill:#797979;}
	.st171{clip-path:url(#SVGID_14_);fill:#787878;}
	.st172{clip-path:url(#SVGID_14_);fill:#777777;}
	.st173{clip-path:url(#SVGID_14_);fill:#767676;}
	.st174{clip-path:url(#SVGID_14_);fill:#757575;}
	.st175{clip-path:url(#SVGID_14_);fill:#747474;}
	.st176{clip-path:url(#SVGID_14_);fill:#737373;}
	.st177{clip-path:url(#SVGID_14_);fill:#727272;}
	.st178{clip-path:url(#SVGID_14_);fill:#717171;}
	.st179{clip-path:url(#SVGID_14_);fill:#707070;}
	.st180{clip-path:url(#SVGID_14_);fill:#6F6F6F;}
	.st181{clip-path:url(#SVGID_14_);fill:#6E6E6E;}
	.st182{clip-path:url(#SVGID_14_);fill:#6D6D6D;}
	.st183{clip-path:url(#SVGID_14_);fill:#6C6C6C;}
	.st184{clip-path:url(#SVGID_14_);fill:#6A6A6A;}
	.st185{clip-path:url(#SVGID_14_);fill:#696969;}
	.st186{clip-path:url(#SVGID_14_);fill:#686868;}
	.st187{clip-path:url(#SVGID_14_);fill:#676767;}
	.st188{clip-path:url(#SVGID_14_);fill:#666666;}
	.st189{clip-path:url(#SVGID_14_);fill:#656565;}
	.st190{clip-path:url(#SVGID_14_);fill:#646464;}
	.st191{clip-path:url(#SVGID_14_);fill:#7C7C7C;}
	.st192{clip-path:url(#SVGID_14_);fill:#7B7B7B;}
	.st193{clip-path:url(#SVGID_14_);fill:#636363;}
	.st194{clip-path:url(#SVGID_14_);fill:#626262;}
	.st195{clip-path:url(#SVGID_14_);fill:#616161;}
	.st196{clip-path:url(#SVGID_14_);fill:#606060;}
	.st197{clip-path:url(#SVGID_16_);fill:#7C7C7C;}
	.st198{clip-path:url(#SVGID_16_);fill:#7B7B7B;}
	.st199{clip-path:url(#SVGID_16_);fill:#7A7A7A;}
	.st200{clip-path:url(#SVGID_16_);fill:#797979;}
	.st201{clip-path:url(#SVGID_16_);fill:#787878;}
	.st202{clip-path:url(#SVGID_16_);fill:#777777;}
	.st203{clip-path:url(#SVGID_16_);fill:#767676;}
	.st204{clip-path:url(#SVGID_16_);fill:#757575;}
	.st205{clip-path:url(#SVGID_16_);fill:#747474;}
	.st206{clip-path:url(#SVGID_16_);fill:#737373;}
	.st207{clip-path:url(#SVGID_16_);fill:#727272;}
	.st208{clip-path:url(#SVGID_16_);fill:#717171;}
	.st209{clip-path:url(#SVGID_16_);fill:#707070;}
	.st210{clip-path:url(#SVGID_16_);fill:#6F6F6F;}
	.st211{clip-path:url(#SVGID_16_);fill:#6E6E6E;}
	.st212{clip-path:url(#SVGID_16_);fill:#6D6D6D;}
	.st213{clip-path:url(#SVGID_16_);fill:#6C6C6C;}
	.st214{clip-path:url(#SVGID_16_);fill:#6A6A6A;}
	.st215{clip-path:url(#SVGID_16_);fill:#696969;}
	.st216{clip-path:url(#SVGID_16_);fill:#686868;}
	.st217{clip-path:url(#SVGID_16_);fill:#676767;}
	.st218{clip-path:url(#SVGID_16_);fill:#666666;}
	.st219{clip-path:url(#SVGID_16_);fill:#656565;}
	.st220{clip-path:url(#SVGID_16_);fill:#646464;}
	.st221{clip-path:url(#SVGID_16_);fill:#636363;}
	.st222{clip-path:url(#SVGID_16_);fill:#626262;}
	.st223{clip-path:url(#SVGID_18_);fill:#7C7C7C;}
	.st224{clip-path:url(#SVGID_18_);fill:#7B7B7B;}
	.st225{clip-path:url(#SVGID_18_);fill:#7A7A7A;}
	.st226{clip-path:url(#SVGID_18_);fill:#797979;}
	.st227{clip-path:url(#SVGID_18_);fill:#787878;}
	.st228{clip-path:url(#SVGID_18_);fill:#777777;}
	.st229{clip-path:url(#SVGID_18_);fill:#767676;}
	.st230{clip-path:url(#SVGID_18_);fill:#757575;}
	.st231{clip-path:url(#SVGID_18_);fill:#747474;}
	.st232{clip-path:url(#SVGID_18_);fill:#737373;}
	.st233{clip-path:url(#SVGID_18_);fill:#727272;}
	.st234{clip-path:url(#SVGID_18_);fill:#717171;}
	.st235{clip-path:url(#SVGID_18_);fill:#707070;}
	.st236{clip-path:url(#SVGID_18_);fill:#6F6F6F;}
	.st237{clip-path:url(#SVGID_18_);fill:#6E6E6E;}
	.st238{clip-path:url(#SVGID_18_);fill:#6D6D6D;}
	.st239{clip-path:url(#SVGID_18_);fill:#6C6C6C;}
	.st240{clip-path:url(#SVGID_18_);fill:#6A6A6A;}
	.st241{clip-path:url(#SVGID_18_);fill:#696969;}
	.st242{clip-path:url(#SVGID_18_);fill:#686868;}
	.st243{clip-path:url(#SVGID_18_);fill:#676767;}
	.st244{clip-path:url(#SVGID_18_);fill:#666666;}
	.st245{clip-path:url(#SVGID_18_);fill:#656565;}
	.st246{clip-path:url(#SVGID_18_);fill:#646464;}
	.st247{clip-path:url(#SVGID_18_);fill:#636363;}
	.st248{clip-path:url(#SVGID_18_);fill:#626262;}
	.st249{clip-path:url(#SVGID_20_);fill:#7C7C7C;}
	.st250{clip-path:url(#SVGID_20_);fill:#7B7B7B;}
	.st251{clip-path:url(#SVGID_20_);fill:#7A7A7A;}
	.st252{clip-path:url(#SVGID_20_);fill:#797979;}
	.st253{clip-path:url(#SVGID_20_);fill:#787878;}
	.st254{clip-path:url(#SVGID_20_);fill:#777777;}
	.st255{clip-path:url(#SVGID_20_);fill:#767676;}
	.st256{clip-path:url(#SVGID_20_);fill:#757575;}
	.st257{clip-path:url(#SVGID_20_);fill:#747474;}
	.st258{clip-path:url(#SVGID_20_);fill:#737373;}
	.st259{clip-path:url(#SVGID_20_);fill:#727272;}
	.st260{clip-path:url(#SVGID_20_);fill:#717171;}
	.st261{clip-path:url(#SVGID_20_);fill:#707070;}
	.st262{clip-path:url(#SVGID_20_);fill:#6F6F6F;}
	.st263{clip-path:url(#SVGID_20_);fill:#6E6E6E;}
	.st264{clip-path:url(#SVGID_20_);fill:#6D6D6D;}
	.st265{clip-path:url(#SVGID_20_);fill:#6C6C6C;}
	.st266{clip-path:url(#SVGID_20_);fill:#6A6A6A;}
	.st267{clip-path:url(#SVGID_20_);fill:#696969;}
	.st268{clip-path:url(#SVGID_20_);fill:#686868;}
	.st269{clip-path:url(#SVGID_20_);fill:#676767;}
	.st270{clip-path:url(#SVGID_20_);fill:#666666;}
	.st271{clip-path:url(#SVGID_20_);fill:#656565;}
	.st272{clip-path:url(#SVGID_20_);fill:#646464;}
	.st273{clip-path:url(#SVGID_20_);fill:#636363;}
	.st274{clip-path:url(#SVGID_20_);fill:#626262;}
	.st275{fill:#494949;}
	.st276{clip-path:url(#SVGID_22_);fill:#015D7B;}
	.st277{clip-path:url(#SVGID_22_);fill:#015E7C;}
	.st278{clip-path:url(#SVGID_22_);fill:#015F7D;}
	.st279{clip-path:url(#SVGID_22_);fill:#01607E;}
	.st280{clip-path:url(#SVGID_22_);fill:#01607F;}
	.st281{clip-path:url(#SVGID_22_);fill:#016180;}
	.st282{clip-path:url(#SVGID_22_);fill:#016281;}
	.st283{clip-path:url(#SVGID_22_);fill:#016382;}
	.st284{clip-path:url(#SVGID_22_);fill:#016483;}
	.st285{clip-path:url(#SVGID_22_);fill:#016584;}
	.st286{clip-path:url(#SVGID_22_);fill:#016585;}
	.st287{clip-path:url(#SVGID_22_);fill:#016686;}
	.st288{clip-path:url(#SVGID_22_);fill:#016787;}
	.st289{clip-path:url(#SVGID_22_);fill:#016888;}
	.st290{clip-path:url(#SVGID_22_);fill:#016989;}
	.st291{clip-path:url(#SVGID_22_);fill:#016A8A;}
	.st292{clip-path:url(#SVGID_22_);fill:#016A8B;}
	.st293{clip-path:url(#SVGID_22_);fill:#016B8C;}
	.st294{clip-path:url(#SVGID_22_);fill:#016C8D;}
	.st295{clip-path:url(#SVGID_22_);fill:#016D8E;}
	.st296{clip-path:url(#SVGID_22_);fill:#016E8F;}
	.st297{clip-path:url(#SVGID_22_);fill:#016F91;}
	.st298{clip-path:url(#SVGID_22_);fill:#006F92;}
	.st299{clip-path:url(#SVGID_22_);fill:#007093;}
	.st300{clip-path:url(#SVGID_22_);fill:#007194;}
	.st301{clip-path:url(#SVGID_22_);fill:#007295;}
	.st302{clip-path:url(#SVGID_22_);fill:#007396;}
	.st303{clip-path:url(#SVGID_22_);fill:#007497;}
	.st304{clip-path:url(#SVGID_22_);fill:#007498;}
	.st305{clip-path:url(#SVGID_22_);fill:#007599;}
	.st306{clip-path:url(#SVGID_22_);fill:#00769A;}
	.st307{clip-path:url(#SVGID_22_);fill:#00779B;}
	.st308{clip-path:url(#SVGID_22_);fill:#00789C;}
	.st309{clip-path:url(#SVGID_22_);fill:#00799D;}
	.st310{clip-path:url(#SVGID_22_);fill:#00799E;}
	.st311{clip-path:url(#SVGID_22_);fill:#007A9F;}
	.st312{clip-path:url(#SVGID_22_);fill:#007BA0;}
	.st313{clip-path:url(#SVGID_22_);fill:#007CA1;}
	.st314{clip-path:url(#SVGID_22_);fill:#007DA2;}
	.st315{clip-path:url(#SVGID_22_);fill:#007EA3;}
	.st316{clip-path:url(#SVGID_22_);fill:#007EA4;}
	.st317{clip-path:url(#SVGID_22_);fill:#007FA5;}
	.st318{clip-path:url(#SVGID_22_);fill:#0080A6;}
	.st319{clip-path:url(#SVGID_24_);fill:#015D7B;}
	.st320{clip-path:url(#SVGID_24_);fill:#015E7C;}
	.st321{clip-path:url(#SVGID_24_);fill:#015F7D;}
	.st322{clip-path:url(#SVGID_24_);fill:#01607E;}
	.st323{clip-path:url(#SVGID_24_);fill:#01607F;}
	.st324{clip-path:url(#SVGID_24_);fill:#016180;}
	.st325{clip-path:url(#SVGID_24_);fill:#016281;}
	.st326{clip-path:url(#SVGID_24_);fill:#016382;}
	.st327{clip-path:url(#SVGID_24_);fill:#016483;}
	.st328{clip-path:url(#SVGID_24_);fill:#016584;}
	.st329{clip-path:url(#SVGID_24_);fill:#016585;}
	.st330{clip-path:url(#SVGID_24_);fill:#016686;}
	.st331{clip-path:url(#SVGID_24_);fill:#016787;}
	.st332{clip-path:url(#SVGID_24_);fill:#016888;}
	.st333{clip-path:url(#SVGID_24_);fill:#016989;}
	.st334{clip-path:url(#SVGID_24_);fill:#016A8A;}
	.st335{clip-path:url(#SVGID_24_);fill:#016A8B;}
	.st336{clip-path:url(#SVGID_24_);fill:#016B8C;}
	.st337{clip-path:url(#SVGID_24_);fill:#016C8D;}
	.st338{clip-path:url(#SVGID_24_);fill:#016D8E;}
	.st339{clip-path:url(#SVGID_24_);fill:#016E8F;}
	.st340{clip-path:url(#SVGID_24_);fill:#016F91;}
	.st341{clip-path:url(#SVGID_24_);fill:#006F92;}
	.st342{clip-path:url(#SVGID_24_);fill:#007093;}
	.st343{clip-path:url(#SVGID_24_);fill:#007194;}
	.st344{clip-path:url(#SVGID_24_);fill:#007295;}
	.st345{clip-path:url(#SVGID_24_);fill:#007396;}
	.st346{clip-path:url(#SVGID_24_);fill:#007497;}
	.st347{clip-path:url(#SVGID_24_);fill:#007498;}
	.st348{clip-path:url(#SVGID_24_);fill:#007599;}
	.st349{clip-path:url(#SVGID_24_);fill:#00769A;}
	.st350{clip-path:url(#SVGID_24_);fill:#00779B;}
	.st351{clip-path:url(#SVGID_24_);fill:#00789C;}
	.st352{clip-path:url(#SVGID_24_);fill:#00799D;}
	.st353{clip-path:url(#SVGID_24_);fill:#00799E;}
	.st354{clip-path:url(#SVGID_24_);fill:#007A9F;}
	.st355{clip-path:url(#SVGID_24_);fill:#007BA0;}
	.st356{clip-path:url(#SVGID_24_);fill:#007CA1;}
	.st357{clip-path:url(#SVGID_24_);fill:#007DA2;}
	.st358{clip-path:url(#SVGID_24_);fill:#007EA3;}
	.st359{clip-path:url(#SVGID_24_);fill:#007EA4;}
	.st360{clip-path:url(#SVGID_24_);fill:#007FA5;}
	.st361{clip-path:url(#SVGID_24_);fill:#0080A6;}
</style>
<g>
	<g>
		<g>
			<defs>
				<path id="SVGID_1_" d="M25.4,138.64V22.72h20.65l39.11,93.71l39.27-93.71h20.34v115.93h-15.49V49.16l-37.86,89.49H78.28
					l-37.7-89.33v89.33H25.4z"/>
			</defs>
			<clipPath id="SVGID_2_">
				<use xlink:href="#SVGID_1_"  style="overflow:visible;"/>
			</clipPath>
			<polygon class="st0" points="144.77,22.93 134.48,22.72 144.77,22.72 			"/>
			<polygon class="st1" points="144.77,27.27 25.4,24.81 25.4,22.72 134.48,22.72 144.77,22.93 			"/>
			<polygon class="st2" points="144.77,31.6 25.4,29.14 25.4,24.81 144.77,27.27 			"/>
			<polygon class="st3" points="144.77,35.94 25.4,33.48 25.4,29.14 144.77,31.6 			"/>
			<polygon class="st4" points="144.77,40.27 25.4,37.81 25.4,33.48 144.77,35.94 			"/>
			<polygon class="st5" points="144.77,44.61 25.4,42.15 25.4,37.81 144.77,40.27 			"/>
			<polygon class="st6" points="144.77,48.95 25.4,46.48 25.4,42.15 144.77,44.61 			"/>
			<polygon class="st7" points="144.77,53.28 25.4,50.82 25.4,46.48 144.77,48.95 			"/>
			<polygon class="st8" points="144.77,57.62 25.4,55.16 25.4,50.82 144.77,53.28 			"/>
			<polygon class="st9" points="144.77,61.95 25.4,59.49 25.4,55.16 144.77,57.62 			"/>
			<polygon class="st10" points="144.77,66.29 25.4,63.83 25.4,59.49 144.77,61.95 			"/>
			<polygon class="st11" points="144.77,70.63 25.4,68.16 25.4,63.83 144.77,66.29 			"/>
			<polygon class="st12" points="144.77,74.96 25.4,72.5 25.4,68.16 144.77,70.63 			"/>
			<polygon class="st13" points="144.77,79.3 25.4,76.84 25.4,72.5 144.77,74.96 			"/>
			<polygon class="st14" points="144.77,83.63 25.4,81.17 25.4,76.84 144.77,79.3 			"/>
			<polygon class="st15" points="144.77,87.97 25.4,85.51 25.4,81.17 144.77,83.63 			"/>
			<polygon class="st16" points="144.77,92.31 25.4,89.84 25.4,85.51 144.77,87.97 			"/>
			<polygon class="st17" points="144.77,96.64 25.4,94.18 25.4,89.84 144.77,92.31 			"/>
			<polygon class="st18" points="144.77,100.98 25.4,98.52 25.4,94.18 144.77,96.64 			"/>
			<polygon class="st19" points="144.77,105.31 25.4,102.85 25.4,98.52 144.77,100.98 			"/>
			<polygon class="st20" points="144.77,109.65 25.4,107.19 25.4,102.85 144.77,105.31 			"/>
			<polygon class="st21" points="144.77,113.98 25.4,111.52 25.4,107.19 144.77,109.65 			"/>
			<polygon class="st22" points="144.77,118.32 25.4,115.86 25.4,111.52 144.77,113.98 			"/>
			<polygon class="st23" points="144.77,122.66 25.4,120.2 25.4,115.86 144.77,118.32 			"/>
			<polygon class="st24" points="144.77,126.99 25.4,124.53 25.4,120.2 144.77,122.66 			"/>
			<polygon class="st25" points="144.77,131.33 25.4,128.87 25.4,124.53 144.77,126.99 			"/>
			<polygon class="st26" points="144.77,135.66 25.4,133.2 25.4,128.87 144.77,131.33 			"/>
			<polygon class="st27" points="78.99,138.64 25.4,137.54 25.4,133.2 144.77,135.66 144.77,138.64 			"/>
			<polygon class="st28" points="25.4,137.54 78.99,138.64 25.4,138.64 			"/>
		</g>
	</g>
	<g>
		<g>
			<defs>
				<path id="SVGID_3_" d="M171.05,138.64V22.72h79.32v15.18h-63.52v33.32h61.95v15.02h-61.95v37.86H251v14.55H171.05z"/>
			</defs>
			<clipPath id="SVGID_4_">
				<use xlink:href="#SVGID_3_"  style="overflow:visible;"/>
			</clipPath>
			<polygon class="st29" points="251,25.12 171.05,23.47 171.05,22.72 251,22.72 			"/>
			<polygon class="st30" points="251,29.46 171.05,27.81 171.05,23.47 251,25.12 			"/>
			<polygon class="st31" points="251,33.79 171.05,32.14 171.05,27.81 251,29.46 			"/>
			<polygon class="st32" points="251,38.13 171.05,36.48 171.05,32.14 251,33.79 			"/>
			<polygon class="st33" points="251,42.46 171.05,40.82 171.05,36.48 251,38.13 			"/>
			<polygon class="st34" points="251,46.8 171.05,45.15 171.05,40.82 251,42.46 			"/>
			<polygon class="st35" points="251,51.14 171.05,49.49 171.05,45.15 251,46.8 			"/>
			<polygon class="st36" points="251,55.47 171.05,53.82 171.05,49.49 251,51.14 			"/>
			<polygon class="st37" points="251,59.81 171.05,58.16 171.05,53.82 251,55.47 			"/>
			<polygon class="st38" points="251,64.14 171.05,62.5 171.05,58.16 251,59.81 			"/>
			<polygon class="st39" points="251,68.48 171.05,66.83 171.05,62.5 251,64.14 			"/>
			<polygon class="st40" points="251,72.82 171.05,71.17 171.05,66.83 251,68.48 			"/>
			<polygon class="st41" points="251,77.15 171.05,75.5 171.05,71.17 251,72.82 			"/>
			<polygon class="st42" points="251,81.49 171.05,79.84 171.05,75.5 251,77.15 			"/>
			<polygon class="st43" points="251,85.82 171.05,84.18 171.05,79.84 251,81.49 			"/>
			<polygon class="st44" points="251,90.16 171.05,88.51 171.05,84.18 251,85.82 			"/>
			<polygon class="st45" points="251,94.5 171.05,92.85 171.05,88.51 251,90.16 			"/>
			<polygon class="st46" points="251,98.83 171.05,97.18 171.05,92.85 251,94.5 			"/>
			<polygon class="st47" points="251,103.17 171.05,101.52 171.05,97.18 251,98.83 			"/>
			<polygon class="st48" points="251,107.5 171.05,105.86 171.05,101.52 251,103.17 			"/>
			<polygon class="st49" points="251,111.84 171.05,110.19 171.05,105.86 251,107.5 			"/>
			<polygon class="st50" points="251,116.18 171.05,114.53 171.05,110.19 251,111.84 			"/>
			<polygon class="st51" points="251,120.51 171.05,118.86 171.05,114.53 251,116.18 			"/>
			<polygon class="st52" points="251,124.85 171.05,123.2 171.05,118.86 251,120.51 			"/>
			<polygon class="st53" points="251,129.18 171.05,127.53 171.05,123.2 251,124.85 			"/>
			<polygon class="st54" points="251,133.52 171.05,131.87 171.05,127.53 251,129.18 			"/>
			<polygon class="st55" points="251,137.85 171.05,136.21 171.05,131.87 251,133.52 			"/>
			<polygon class="st56" points="171.05,136.21 251,137.85 251,138.64 171.05,138.64 			"/>
		</g>
	</g>
	<g>
		<g>
			<defs>
				<path id="SVGID_5_" d="M273.05,138.64V22.72h38.8c11.37,0,20.75,0.89,28.16,2.66c7.4,1.77,13.64,4.9,18.69,9.39
					c5.06,4.49,8.66,10.4,10.79,17.76c2.14,7.35,3.21,16.71,3.21,28.08c0,21.69-4.77,36.79-14.31,45.29
					c-9.54,8.5-25.63,12.75-48.26,12.75H273.05z M288.85,124.09h22.06c17.42,0,29.41-3.21,35.98-9.62
					c6.57-6.41,9.86-17.7,9.86-33.87c0-16.48-3.05-27.74-9.15-33.79c-6.1-6.05-17.97-9.07-35.59-9.07h-23.15V124.09z"/>
			</defs>
			<clipPath id="SVGID_6_">
				<use xlink:href="#SVGID_5_"  style="overflow:visible;"/>
			</clipPath>
			<polygon class="st57" points="356.75,40.31 288.85,38.91 288.85,37.74 356.75,37.74 			"/>
			<polygon class="st58" points="356.75,44.64 288.85,43.24 288.85,38.91 356.75,40.31 			"/>
			<polygon class="st59" points="356.75,48.98 288.85,47.58 288.85,43.24 356.75,44.64 			"/>
			<polygon class="st60" points="356.75,53.32 288.85,51.92 288.85,47.58 356.75,48.98 			"/>
			<polygon class="st61" points="356.75,57.65 288.85,56.25 288.85,51.92 356.75,53.32 			"/>
			<polygon class="st62" points="356.75,61.99 288.85,60.59 288.85,56.25 356.75,57.65 			"/>
			<polygon class="st63" points="356.75,66.32 288.85,64.92 288.85,60.59 356.75,61.99 			"/>
			<polygon class="st64" points="356.75,70.66 288.85,69.26 288.85,64.92 356.75,66.32 			"/>
			<polygon class="st65" points="356.75,75 288.85,73.6 288.85,69.26 356.75,70.66 			"/>
			<polygon class="st66" points="356.75,79.33 288.85,77.93 288.85,73.6 356.75,75 			"/>
			<polygon class="st67" points="356.75,83.67 288.85,82.27 288.85,77.93 356.75,79.33 			"/>
			<polygon class="st68" points="356.75,88 288.85,86.6 288.85,82.27 356.75,83.67 			"/>
			<polygon class="st69" points="356.75,92.34 288.85,90.94 288.85,86.6 356.75,88 			"/>
			<polygon class="st70" points="356.75,96.68 288.85,95.28 288.85,90.94 356.75,92.34 			"/>
			<polygon class="st71" points="356.75,101.01 288.85,99.61 288.85,95.28 356.75,96.68 			"/>
			<polygon class="st72" points="356.75,105.35 288.85,103.95 288.85,99.61 356.75,101.01 			"/>
			<polygon class="st73" points="356.75,109.68 288.85,108.28 288.85,103.95 356.75,105.35 			"/>
			<polygon class="st74" points="356.75,114.02 288.85,112.62 288.85,108.28 356.75,109.68 			"/>
			<polygon class="st75" points="356.75,118.36 288.85,116.96 288.85,112.62 356.75,114.02 			"/>
			<polygon class="st76" points="356.75,122.69 288.85,121.29 288.85,116.96 356.75,118.36 			"/>
			<polygon class="st77" points="288.85,121.29 356.75,122.69 356.75,124.09 288.85,124.09 			"/>
			<polygon class="st78" points="372.71,23.29 344.77,22.72 372.71,22.72 			"/>
			<polygon class="st79" points="372.71,27.63 273.05,25.58 273.05,22.72 344.77,22.72 372.71,23.29 			"/>
			<polygon class="st80" points="372.71,31.97 273.05,29.91 273.05,25.58 372.71,27.63 			"/>
			<polygon class="st81" points="372.71,36.3 273.05,34.25 273.05,29.91 372.71,31.97 			"/>
			<polygon class="st57" points="372.71,40.64 273.05,38.58 273.05,34.25 372.71,36.3 			"/>
			<polygon class="st58" points="372.71,44.97 273.05,42.92 273.05,38.58 372.71,40.64 			"/>
			<polygon class="st59" points="372.71,49.31 273.05,47.26 273.05,42.92 372.71,44.97 			"/>
			<polygon class="st60" points="372.71,53.65 273.05,51.59 273.05,47.26 372.71,49.31 			"/>
			<polygon class="st61" points="372.71,57.98 273.05,55.93 273.05,51.59 372.71,53.65 			"/>
			<polygon class="st62" points="372.71,62.32 273.05,60.26 273.05,55.93 372.71,57.98 			"/>
			<polygon class="st63" points="372.71,66.65 273.05,64.6 273.05,60.26 372.71,62.32 			"/>
			<polygon class="st64" points="372.71,70.99 273.05,68.93 273.05,64.6 372.71,66.65 			"/>
			<polygon class="st65" points="372.71,75.33 273.05,73.27 273.05,68.93 372.71,70.99 			"/>
			<polygon class="st66" points="372.71,79.66 273.05,77.61 273.05,73.27 372.71,75.33 			"/>
			<polygon class="st67" points="372.71,84 273.05,81.94 273.05,77.61 372.71,79.66 			"/>
			<polygon class="st68" points="372.71,88.33 273.05,86.28 273.05,81.94 372.71,84 			"/>
			<polygon class="st69" points="372.71,92.67 273.05,90.61 273.05,86.28 372.71,88.33 			"/>
			<polygon class="st70" points="372.71,97.01 273.05,94.95 273.05,90.61 372.71,92.67 			"/>
			<polygon class="st71" points="372.71,101.34 273.05,99.29 273.05,94.95 372.71,97.01 			"/>
			<polygon class="st72" points="372.71,105.68 273.05,103.62 273.05,99.29 372.71,101.34 			"/>
			<polygon class="st73" points="372.71,110.01 273.05,107.96 273.05,103.62 372.71,105.68 			"/>
			<polygon class="st74" points="372.71,114.35 273.05,112.29 273.05,107.96 372.71,110.01 			"/>
			<polygon class="st75" points="372.71,118.68 273.05,116.63 273.05,112.29 372.71,114.35 			"/>
			<polygon class="st76" points="372.71,123.02 273.05,120.97 273.05,116.63 372.71,118.68 			"/>
			<polygon class="st77" points="372.71,127.36 273.05,125.3 273.05,120.97 372.71,123.02 			"/>
			<polygon class="st82" points="372.71,131.69 273.05,129.64 273.05,125.3 372.71,127.36 			"/>
			<polygon class="st83" points="372.71,136.03 273.05,133.97 273.05,129.64 372.71,131.69 			"/>
			<polygon class="st84" points="289.28,138.64 273.05,138.31 273.05,133.97 372.71,136.03 372.71,138.64 			"/>
			<polygon class="st85" points="273.05,138.31 289.28,138.64 273.05,138.64 			"/>
		</g>
	</g>
	<g>
		<g>
			<defs>
				<path id="SVGID_7_" d="M393.36,138.64V22.72H409v115.93H393.36z"/>
			</defs>
			<clipPath id="SVGID_8_">
				<use xlink:href="#SVGID_7_"  style="overflow:visible;"/>
			</clipPath>
			<polygon class="st86" points="409,24.04 393.36,23.72 393.36,22.72 409,22.72 			"/>
			<polygon class="st87" points="409,28.38 393.36,28.06 393.36,23.72 409,24.04 			"/>
			<polygon class="st88" points="409,32.71 393.36,32.39 393.36,28.06 409,28.38 			"/>
			<polygon class="st89" points="409,37.05 393.36,36.73 393.36,32.39 409,32.71 			"/>
			<polygon class="st90" points="409,41.39 393.36,41.06 393.36,36.73 409,37.05 			"/>
			<polygon class="st91" points="409,45.72 393.36,45.4 393.36,41.06 409,41.39 			"/>
			<polygon class="st92" points="409,50.06 393.36,49.74 393.36,45.4 409,45.72 			"/>
			<polygon class="st93" points="409,54.39 393.36,54.07 393.36,49.74 409,50.06 			"/>
			<polygon class="st94" points="409,58.73 393.36,58.41 393.36,54.07 409,54.39 			"/>
			<polygon class="st95" points="409,63.07 393.36,62.74 393.36,58.41 409,58.73 			"/>
			<polygon class="st96" points="409,67.4 393.36,67.08 393.36,62.74 409,63.07 			"/>
			<polygon class="st97" points="409,71.74 393.36,71.42 393.36,67.08 409,67.4 			"/>
			<polygon class="st98" points="409,76.07 393.36,75.75 393.36,71.42 409,71.74 			"/>
			<polygon class="st99" points="409,80.41 393.36,80.09 393.36,75.75 409,76.07 			"/>
			<polygon class="st100" points="409,84.75 393.36,84.42 393.36,80.09 409,80.41 			"/>
			<polygon class="st101" points="409,89.08 393.36,88.76 393.36,84.42 409,84.75 			"/>
			<polygon class="st102" points="409,93.42 393.36,93.09 393.36,88.76 409,89.08 			"/>
			<polygon class="st103" points="409,97.75 393.36,97.43 393.36,93.09 409,93.42 			"/>
			<polygon class="st104" points="409,102.09 393.36,101.77 393.36,97.43 409,97.75 			"/>
			<polygon class="st105" points="409,106.43 393.36,106.1 393.36,101.77 409,102.09 			"/>
			<polygon class="st106" points="409,110.76 393.36,110.44 393.36,106.1 409,106.43 			"/>
			<polygon class="st107" points="409,115.1 393.36,114.77 393.36,110.44 409,110.76 			"/>
			<polygon class="st108" points="409,119.43 393.36,119.11 393.36,114.77 409,115.1 			"/>
			<polygon class="st109" points="409,123.77 393.36,123.45 393.36,119.11 409,119.43 			"/>
			<polygon class="st110" points="409,128.1 393.36,127.78 393.36,123.45 409,123.77 			"/>
			<polygon class="st111" points="409,132.44 393.36,132.12 393.36,127.78 409,128.1 			"/>
			<polygon class="st112" points="409,136.78 393.36,136.45 393.36,132.12 409,132.44 			"/>
			<polygon class="st113" points="393.36,136.45 409,136.78 409,138.64 393.36,138.64 			"/>
		</g>
	</g>
	<g>
		<g>
			<defs>
				<path id="SVGID_9_" d="M487.69,140.37c-19.82,0-34.42-5.01-43.8-15.02c-9.39-10.01-14.08-24.93-14.08-44.74
					c0-20.03,5.03-34.99,15.1-44.9c10.06-9.91,24.59-14.86,43.57-14.86c17.31,0,31.29,5.06,41.93,15.17l-11.42,11.42
					c-8.24-7.61-18.46-11.42-30.66-11.42c-28.37,0-42.55,14.92-42.55,44.74c0,14.92,3.47,26.1,10.4,33.56
					c6.93,7.46,17.7,11.19,32.31,11.19c7.61,0,13.74-1.02,18.38-3.05c4.64-2.03,9-4.98,13.06-8.84l11.26,10.79
					C520.55,135.05,506.05,140.37,487.69,140.37z"/>
			</defs>
			<clipPath id="SVGID_10_">
				<use xlink:href="#SVGID_9_"  style="overflow:visible;"/>
			</clipPath>
			<polygon class="st114" points="531.19,22.23 464.02,20.84 531.19,20.84 			"/>
			<polygon class="st114" points="531.19,26.56 429.81,24.47 429.81,20.84 464.02,20.84 531.19,22.23 			"/>
			<polygon class="st115" points="531.19,30.9 429.81,28.81 429.81,24.47 531.19,26.56 			"/>
			<polygon class="st116" points="531.19,35.23 429.81,33.14 429.81,28.81 531.19,30.9 			"/>
			<polygon class="st117" points="531.19,39.57 429.81,37.48 429.81,33.14 531.19,35.23 			"/>
			<polygon class="st118" points="531.19,43.91 429.81,41.82 429.81,37.48 531.19,39.57 			"/>
			<polygon class="st119" points="531.19,48.24 429.81,46.15 429.81,41.82 531.19,43.91 			"/>
			<polygon class="st120" points="531.19,52.58 429.81,50.49 429.81,46.15 531.19,48.24 			"/>
			<polygon class="st121" points="531.19,56.91 429.81,54.82 429.81,50.49 531.19,52.58 			"/>
			<polygon class="st122" points="531.19,61.25 429.81,59.16 429.81,54.82 531.19,56.91 			"/>
			<polygon class="st123" points="531.19,65.59 429.81,63.49 429.81,59.16 531.19,61.25 			"/>
			<polygon class="st124" points="531.19,69.92 429.81,67.83 429.81,63.49 531.19,65.59 			"/>
			<polygon class="st125" points="531.19,74.26 429.81,72.17 429.81,67.83 531.19,69.92 			"/>
			<polygon class="st126" points="531.19,78.59 429.81,76.5 429.81,72.17 531.19,74.26 			"/>
			<polygon class="st127" points="531.19,82.93 429.81,80.84 429.81,76.5 531.19,78.59 			"/>
			<polygon class="st128" points="531.19,87.26 429.81,85.17 429.81,80.84 531.19,82.93 			"/>
			<polygon class="st129" points="531.19,91.6 429.81,89.51 429.81,85.17 531.19,87.26 			"/>
			<polygon class="st130" points="531.19,95.94 429.81,93.85 429.81,89.51 531.19,91.6 			"/>
			<polygon class="st131" points="531.19,100.27 429.81,98.18 429.81,93.85 531.19,95.94 			"/>
			<polygon class="st132" points="531.19,104.61 429.81,102.52 429.81,98.18 531.19,100.27 			"/>
			<polygon class="st133" points="531.19,108.94 429.81,106.85 429.81,102.52 531.19,104.61 			"/>
			<polygon class="st134" points="531.19,113.28 429.81,111.19 429.81,106.85 531.19,108.94 			"/>
			<polygon class="st135" points="531.19,117.62 429.81,115.53 429.81,111.19 531.19,113.28 			"/>
			<polygon class="st136" points="531.19,121.95 429.81,119.86 429.81,115.53 531.19,117.62 			"/>
			<polygon class="st137" points="531.19,126.29 429.81,124.2 429.81,119.86 531.19,121.95 			"/>
			<polygon class="st138" points="531.19,130.62 429.81,128.53 429.81,124.2 531.19,126.29 			"/>
			<polygon class="st139" points="531.19,134.96 429.81,132.87 429.81,128.53 531.19,130.62 			"/>
			<polygon class="st140" points="531.19,139.3 429.81,137.21 429.81,132.87 531.19,134.96 			"/>
			<polygon class="st141" points="429.81,137.21 531.19,139.3 531.19,140.37 429.81,140.37 			"/>
		</g>
	</g>
	<g>
		<g>
			<defs>
				<path id="SVGID_11_" d="M552.15,138.64V22.72h15.65v115.93H552.15z"/>
			</defs>
			<clipPath id="SVGID_12_">
				<use xlink:href="#SVGID_11_"  style="overflow:visible;"/>
			</clipPath>
			<polygon class="st142" points="567.79,22.98 555.06,22.72 567.79,22.72 			"/>
			<polygon class="st142" points="567.79,27.32 552.15,26.99 552.15,22.72 555.06,22.72 567.79,22.98 			"/>
			<polygon class="st143" points="567.79,31.65 552.15,31.33 552.15,26.99 567.79,27.32 			"/>
			<polygon class="st144" points="567.79,35.99 552.15,35.67 552.15,31.33 567.79,31.65 			"/>
			<polygon class="st145" points="567.79,40.32 552.15,40 552.15,35.67 567.79,35.99 			"/>
			<polygon class="st146" points="567.79,44.66 552.15,44.34 552.15,40 567.79,40.32 			"/>
			<polygon class="st147" points="567.79,49 552.15,48.67 552.15,44.34 567.79,44.66 			"/>
			<polygon class="st148" points="567.79,53.33 552.15,53.01 552.15,48.67 567.79,49 			"/>
			<polygon class="st149" points="567.79,57.67 552.15,57.35 552.15,53.01 567.79,53.33 			"/>
			<polygon class="st150" points="567.79,62 552.15,61.68 552.15,57.35 567.79,57.67 			"/>
			<polygon class="st151" points="567.79,66.34 552.15,66.02 552.15,61.68 567.79,62 			"/>
			<polygon class="st152" points="567.79,70.68 552.15,70.35 552.15,66.02 567.79,66.34 			"/>
			<polygon class="st153" points="567.79,75.01 552.15,74.69 552.15,70.35 567.79,70.68 			"/>
			<polygon class="st154" points="567.79,79.35 552.15,79.03 552.15,74.69 567.79,75.01 			"/>
			<polygon class="st155" points="567.79,83.68 552.15,83.36 552.15,79.03 567.79,79.35 			"/>
			<polygon class="st156" points="567.79,88.02 552.15,87.7 552.15,83.36 567.79,83.68 			"/>
			<polygon class="st157" points="567.79,92.36 552.15,92.03 552.15,87.7 567.79,88.02 			"/>
			<polygon class="st158" points="567.79,96.69 552.15,96.37 552.15,92.03 567.79,92.36 			"/>
			<polygon class="st159" points="567.79,101.03 552.15,100.7 552.15,96.37 567.79,96.69 			"/>
			<polygon class="st160" points="567.79,105.36 552.15,105.04 552.15,100.7 567.79,101.03 			"/>
			<polygon class="st161" points="567.79,109.7 552.15,109.38 552.15,105.04 567.79,105.36 			"/>
			<polygon class="st162" points="567.79,114.04 552.15,113.71 552.15,109.38 567.79,109.7 			"/>
			<polygon class="st163" points="567.79,118.37 552.15,118.05 552.15,113.71 567.79,114.04 			"/>
			<polygon class="st164" points="567.79,122.71 552.15,122.38 552.15,118.05 567.79,118.37 			"/>
			<polygon class="st165" points="567.79,127.04 552.15,126.72 552.15,122.38 567.79,122.71 			"/>
			<polygon class="st166" points="567.79,131.38 552.15,131.06 552.15,126.72 567.79,127.04 			"/>
			<polygon class="st167" points="567.79,135.71 552.15,135.39 552.15,131.06 567.79,131.38 			"/>
			<polygon class="st168" points="552.15,135.39 567.79,135.71 567.79,138.64 552.15,138.64 			"/>
		</g>
	</g>
	<g>
		<g>
			<defs>
				<path id="SVGID_13_" d="M647.73,140.52c-39.42,0-59.14-19.97-59.14-59.92c0-39.84,19.71-59.76,59.14-59.76
					c39.42,0,59.14,19.92,59.14,59.76C706.87,120.55,687.16,140.52,647.73,140.52z M647.73,125.82c28.89,0,43.33-14.97,43.33-44.9
					c0-29.93-14.45-44.9-43.33-44.9c-28.79,0-43.18,14.97-43.18,44.9C604.55,110.85,618.95,125.82,647.73,125.82z"/>
			</defs>
			<clipPath id="SVGID_14_">
				<use xlink:href="#SVGID_13_"  style="overflow:visible;"/>
			</clipPath>
			<polygon class="st169" points="691.07,38.53 604.55,36.75 604.55,36.02 691.07,36.02 			"/>
			<polygon class="st170" points="691.07,42.87 604.55,41.08 604.55,36.75 691.07,38.53 			"/>
			<polygon class="st171" points="691.07,47.2 604.55,45.42 604.55,41.08 691.07,42.87 			"/>
			<polygon class="st172" points="691.07,51.54 604.55,49.75 604.55,45.42 691.07,47.2 			"/>
			<polygon class="st173" points="691.07,55.87 604.55,54.09 604.55,49.75 691.07,51.54 			"/>
			<polygon class="st174" points="691.07,60.21 604.55,58.43 604.55,54.09 691.07,55.87 			"/>
			<polygon class="st175" points="691.07,64.55 604.55,62.76 604.55,58.43 691.07,60.21 			"/>
			<polygon class="st176" points="691.07,68.88 604.55,67.1 604.55,62.76 691.07,64.55 			"/>
			<polygon class="st177" points="691.07,73.22 604.55,71.43 604.55,67.1 691.07,68.88 			"/>
			<polygon class="st178" points="691.07,77.55 604.55,75.77 604.55,71.43 691.07,73.22 			"/>
			<polygon class="st179" points="691.07,81.89 604.55,80.11 604.55,75.77 691.07,77.55 			"/>
			<polygon class="st180" points="691.07,86.23 604.55,84.44 604.55,80.11 691.07,81.89 			"/>
			<polygon class="st181" points="691.07,90.56 604.55,88.78 604.55,84.44 691.07,86.23 			"/>
			<polygon class="st182" points="691.07,94.9 604.55,93.11 604.55,88.78 691.07,90.56 			"/>
			<polygon class="st183" points="691.07,99.23 604.55,97.45 604.55,93.11 691.07,94.9 			"/>
			<polygon class="st184" points="691.07,103.57 604.55,101.79 604.55,97.45 691.07,99.23 			"/>
			<polygon class="st185" points="691.07,107.91 604.55,106.12 604.55,101.79 691.07,103.57 			"/>
			<polygon class="st186" points="691.07,112.24 604.55,110.46 604.55,106.12 691.07,107.91 			"/>
			<polygon class="st187" points="691.07,116.58 604.55,114.79 604.55,110.46 691.07,112.24 			"/>
			<polygon class="st188" points="691.07,120.91 604.55,119.13 604.55,114.79 691.07,116.58 			"/>
			<polygon class="st189" points="691.07,125.25 604.55,123.47 604.55,119.13 691.07,120.91 			"/>
			<polygon class="st190" points="604.55,123.47 691.07,125.25 691.07,125.82 604.55,125.82 			"/>
			<polygon class="st191" points="706.87,25.85 588.6,23.41 588.6,20.84 706.87,20.84 			"/>
			<polygon class="st191" points="706.87,30.18 588.6,27.75 588.6,23.41 706.87,25.85 			"/>
			<polygon class="st192" points="706.87,34.52 588.6,32.08 588.6,27.75 706.87,30.18 			"/>
			<polygon class="st169" points="706.87,38.86 588.6,36.42 588.6,32.08 706.87,34.52 			"/>
			<polygon class="st170" points="706.87,43.19 588.6,40.75 588.6,36.42 706.87,38.86 			"/>
			<polygon class="st171" points="706.87,47.53 588.6,45.09 588.6,40.75 706.87,43.19 			"/>
			<polygon class="st172" points="706.87,51.86 588.6,49.43 588.6,45.09 706.87,47.53 			"/>
			<polygon class="st173" points="706.87,56.2 588.6,53.76 588.6,49.43 706.87,51.86 			"/>
			<polygon class="st174" points="706.87,60.54 588.6,58.1 588.6,53.76 706.87,56.2 			"/>
			<polygon class="st175" points="706.87,64.87 588.6,62.43 588.6,58.1 706.87,60.54 			"/>
			<polygon class="st176" points="706.87,69.21 588.6,66.77 588.6,62.43 706.87,64.87 			"/>
			<polygon class="st177" points="706.87,73.54 588.6,71.1 588.6,66.77 706.87,69.21 			"/>
			<polygon class="st178" points="706.87,77.88 588.6,75.44 588.6,71.1 706.87,73.54 			"/>
			<polygon class="st179" points="706.87,82.22 588.6,79.78 588.6,75.44 706.87,77.88 			"/>
			<polygon class="st180" points="706.87,86.55 588.6,84.11 588.6,79.78 706.87,82.22 			"/>
			<polygon class="st181" points="706.87,90.89 588.6,88.45 588.6,84.11 706.87,86.55 			"/>
			<polygon class="st182" points="706.87,95.22 588.6,92.78 588.6,88.45 706.87,90.89 			"/>
			<polygon class="st183" points="706.87,99.56 588.6,97.12 588.6,92.78 706.87,95.22 			"/>
			<polygon class="st184" points="706.87,103.9 588.6,101.46 588.6,97.12 706.87,99.56 			"/>
			<polygon class="st185" points="706.87,108.23 588.6,105.79 588.6,101.46 706.87,103.9 			"/>
			<polygon class="st186" points="706.87,112.57 588.6,110.13 588.6,105.79 706.87,108.23 			"/>
			<polygon class="st187" points="706.87,116.9 588.6,114.46 588.6,110.13 706.87,112.57 			"/>
			<polygon class="st188" points="706.87,121.24 588.6,118.8 588.6,114.46 706.87,116.9 			"/>
			<polygon class="st189" points="706.87,125.57 588.6,123.14 588.6,118.8 706.87,121.24 			"/>
			<polygon class="st190" points="706.87,129.91 588.6,127.47 588.6,123.14 706.87,125.57 			"/>
			<polygon class="st193" points="706.87,134.25 588.6,131.81 588.6,127.47 706.87,129.91 			"/>
			<polygon class="st194" points="706.87,138.58 588.6,136.14 588.6,131.81 706.87,134.25 			"/>
			<polygon class="st195" points="590.61,140.52 588.6,140.48 588.6,136.14 706.87,138.58 706.87,140.52 			"/>
			<polygon class="st196" points="588.6,140.48 590.61,140.52 588.6,140.52 			"/>
		</g>
	</g>
	<g>
		<g>
			<defs>
				<path id="SVGID_15_" d="M726.58,138.64V22.72h17.21l64.92,89.33V22.72h15.33v115.93H809.5l-67.58-92.77v92.77H726.58z"/>
			</defs>
			<clipPath id="SVGID_16_">
				<use xlink:href="#SVGID_15_"  style="overflow:visible;"/>
			</clipPath>
			<polygon class="st197" points="824.05,28.26 726.58,26.25 726.58,22.72 824.05,22.72 			"/>
			<polygon class="st197" points="824.05,32.6 726.58,30.59 726.58,26.25 824.05,28.26 			"/>
			<polygon class="st198" points="824.05,36.94 726.58,34.93 726.58,30.59 824.05,32.6 			"/>
			<polygon class="st199" points="824.05,41.27 726.58,39.26 726.58,34.93 824.05,36.94 			"/>
			<polygon class="st200" points="824.05,45.61 726.58,43.6 726.58,39.26 824.05,41.27 			"/>
			<polygon class="st201" points="824.05,49.94 726.58,47.93 726.58,43.6 824.05,45.61 			"/>
			<polygon class="st202" points="824.05,54.28 726.58,52.27 726.58,47.93 824.05,49.94 			"/>
			<polygon class="st203" points="824.05,58.62 726.58,56.61 726.58,52.27 824.05,54.28 			"/>
			<polygon class="st204" points="824.05,62.95 726.58,60.94 726.58,56.61 824.05,58.62 			"/>
			<polygon class="st205" points="824.05,67.29 726.58,65.28 726.58,60.94 824.05,62.95 			"/>
			<polygon class="st206" points="824.05,71.62 726.58,69.61 726.58,65.28 824.05,67.29 			"/>
			<polygon class="st207" points="824.05,75.96 726.58,73.95 726.58,69.61 824.05,71.62 			"/>
			<polygon class="st208" points="824.05,80.3 726.58,78.29 726.58,73.95 824.05,75.96 			"/>
			<polygon class="st209" points="824.05,84.63 726.58,82.62 726.58,78.29 824.05,80.3 			"/>
			<polygon class="st210" points="824.05,88.97 726.58,86.96 726.58,82.62 824.05,84.63 			"/>
			<polygon class="st211" points="824.05,93.3 726.58,91.29 726.58,86.96 824.05,88.97 			"/>
			<polygon class="st212" points="824.05,97.64 726.58,95.63 726.58,91.29 824.05,93.3 			"/>
			<polygon class="st213" points="824.05,101.98 726.58,99.97 726.58,95.63 824.05,97.64 			"/>
			<polygon class="st214" points="824.05,106.31 726.58,104.3 726.58,99.97 824.05,101.98 			"/>
			<polygon class="st215" points="824.05,110.65 726.58,108.64 726.58,104.3 824.05,106.31 			"/>
			<polygon class="st216" points="824.05,114.98 726.58,112.97 726.58,108.64 824.05,110.65 			"/>
			<polygon class="st217" points="824.05,119.32 726.58,117.31 726.58,112.97 824.05,114.98 			"/>
			<polygon class="st218" points="824.05,123.65 726.58,121.65 726.58,117.31 824.05,119.32 			"/>
			<polygon class="st219" points="824.05,127.99 726.58,125.98 726.58,121.65 824.05,123.65 			"/>
			<polygon class="st220" points="824.05,132.33 726.58,130.32 726.58,125.98 824.05,127.99 			"/>
			<polygon class="st221" points="824.05,136.66 726.58,134.65 726.58,130.32 824.05,132.33 			"/>
			<polygon class="st222" points="726.58,134.65 824.05,136.66 824.05,138.64 726.58,138.64 			"/>
		</g>
	</g>
	<g>
		<g>
			<defs>
				<path id="SVGID_17_" d="M850.33,138.64V22.72h79.32v15.18h-63.52v33.32h61.95v15.02h-61.95v37.86h64.14v14.55H850.33z"/>
			</defs>
			<clipPath id="SVGID_18_">
				<use xlink:href="#SVGID_17_"  style="overflow:visible;"/>
			</clipPath>
			<polygon class="st223" points="930.27,30.45 850.33,28.81 850.33,22.72 930.27,22.72 			"/>
			<polygon class="st223" points="930.27,34.79 850.33,33.14 850.33,28.81 930.27,30.45 			"/>
			<polygon class="st224" points="930.27,39.13 850.33,37.48 850.33,33.14 930.27,34.79 			"/>
			<polygon class="st225" points="930.27,43.46 850.33,41.81 850.33,37.48 930.27,39.13 			"/>
			<polygon class="st226" points="930.27,47.8 850.33,46.15 850.33,41.81 930.27,43.46 			"/>
			<polygon class="st227" points="930.27,52.13 850.33,50.49 850.33,46.15 930.27,47.8 			"/>
			<polygon class="st228" points="930.27,56.47 850.33,54.82 850.33,50.49 930.27,52.13 			"/>
			<polygon class="st229" points="930.27,60.81 850.33,59.16 850.33,54.82 930.27,56.47 			"/>
			<polygon class="st230" points="930.27,65.14 850.33,63.49 850.33,59.16 930.27,60.81 			"/>
			<polygon class="st231" points="930.27,69.48 850.33,67.83 850.33,63.49 930.27,65.14 			"/>
			<polygon class="st232" points="930.27,73.81 850.33,72.17 850.33,67.83 930.27,69.48 			"/>
			<polygon class="st233" points="930.27,78.15 850.33,76.5 850.33,72.17 930.27,73.81 			"/>
			<polygon class="st234" points="930.27,82.49 850.33,80.84 850.33,76.5 930.27,78.15 			"/>
			<polygon class="st235" points="930.27,86.82 850.33,85.17 850.33,80.84 930.27,82.49 			"/>
			<polygon class="st236" points="930.27,91.16 850.33,89.51 850.33,85.17 930.27,86.82 			"/>
			<polygon class="st237" points="930.27,95.49 850.33,93.85 850.33,89.51 930.27,91.16 			"/>
			<polygon class="st238" points="930.27,99.83 850.33,98.18 850.33,93.85 930.27,95.49 			"/>
			<polygon class="st239" points="930.27,104.17 850.33,102.52 850.33,98.18 930.27,99.83 			"/>
			<polygon class="st240" points="930.27,108.5 850.33,106.85 850.33,102.52 930.27,104.17 			"/>
			<polygon class="st241" points="930.27,112.84 850.33,111.19 850.33,106.85 930.27,108.5 			"/>
			<polygon class="st242" points="930.27,117.17 850.33,115.52 850.33,111.19 930.27,112.84 			"/>
			<polygon class="st243" points="930.27,121.51 850.33,119.86 850.33,115.52 930.27,117.17 			"/>
			<polygon class="st244" points="930.27,125.84 850.33,124.2 850.33,119.86 930.27,121.51 			"/>
			<polygon class="st245" points="930.27,130.18 850.33,128.53 850.33,124.2 930.27,125.84 			"/>
			<polygon class="st246" points="930.27,134.52 850.33,132.87 850.33,128.53 930.27,130.18 			"/>
			<polygon class="st247" points="920.16,138.64 850.33,137.2 850.33,132.87 930.27,134.52 930.27,138.64 			"/>
			<polygon class="st248" points="850.33,137.2 920.16,138.64 850.33,138.64 			"/>
		</g>
	</g>
	<g>
		<g>
			<defs>
				<path id="SVGID_19_" d="M992.38,140.21c-19.61,0-36.24-4.59-49.91-13.77l7.98-12.2c12.3,8.03,26.13,12.05,41.46,12.05
					c11.68,0,20.02-1.59,25.03-4.77c5.01-3.18,7.51-8.32,7.51-15.41c0-2.82-0.55-5.27-1.64-7.35c-1.1-2.08-2.4-3.76-3.91-5.01
					c-1.51-1.25-3.91-2.37-7.2-3.36c-3.29-0.99-6.18-1.75-8.68-2.27c-2.5-0.52-6.26-1.2-11.26-2.03
					c-6.16-1.04-11.11-1.98-14.86-2.82c-3.76-0.83-7.64-2.06-11.66-3.68c-4.02-1.62-7.09-3.52-9.23-5.71
					c-2.14-2.19-3.91-5.03-5.32-8.53c-1.41-3.49-2.11-7.59-2.11-12.28c0-11.47,3.54-19.71,10.64-24.72
					c7.09-5.01,18.04-7.51,32.85-7.51c17.42,0,31.5,3.55,42.24,10.64l-8.6,12.99c-9.07-6.05-20.29-9.07-33.64-9.07
					c-9.91,0-17.03,1.36-21.36,4.07c-4.33,2.71-6.49,7.15-6.49,13.3c0,2.61,0.49,4.85,1.49,6.73c0.99,1.88,2.22,3.42,3.68,4.62
					c1.46,1.2,3.7,2.3,6.73,3.29c3.02,0.99,5.84,1.77,8.45,2.35c2.61,0.57,6.31,1.28,11.11,2.11c4.48,0.73,8.06,1.36,10.72,1.88
					c2.66,0.52,5.76,1.28,9.31,2.27c3.54,0.99,6.36,1.98,8.45,2.97c2.08,0.99,4.28,2.32,6.57,3.99c2.29,1.67,4.04,3.52,5.24,5.55
					c1.2,2.03,2.19,4.46,2.97,7.27c0.78,2.82,1.17,6,1.17,9.54c0,11.79-3.83,20.55-11.5,26.28
					C1020.93,137.34,1008.86,140.21,992.38,140.21z"/>
			</defs>
			<clipPath id="SVGID_20_">
				<use xlink:href="#SVGID_19_"  style="overflow:visible;"/>
			</clipPath>
			<polygon class="st249" points="1040.09,32.72 942.47,30.71 942.47,20.84 1040.09,20.84 			"/>
			<polygon class="st249" points="1040.09,37.05 942.47,35.04 942.47,30.71 1040.09,32.72 			"/>
			<polygon class="st250" points="1040.09,41.39 942.47,39.38 942.47,35.04 1040.09,37.05 			"/>
			<polygon class="st251" points="1040.09,45.73 942.47,43.71 942.47,39.38 1040.09,41.39 			"/>
			<polygon class="st252" points="1040.09,50.06 942.47,48.05 942.47,43.71 1040.09,45.73 			"/>
			<polygon class="st253" points="1040.09,54.4 942.47,52.39 942.47,48.05 1040.09,50.06 			"/>
			<polygon class="st254" points="1040.09,58.73 942.47,56.72 942.47,52.39 1040.09,54.4 			"/>
			<polygon class="st255" points="1040.09,63.07 942.47,61.06 942.47,56.72 1040.09,58.73 			"/>
			<polygon class="st256" points="1040.09,67.41 942.47,65.39 942.47,61.06 1040.09,63.07 			"/>
			<polygon class="st257" points="1040.09,71.74 942.47,69.73 942.47,65.39 1040.09,67.41 			"/>
			<polygon class="st258" points="1040.09,76.08 942.47,74.07 942.47,69.73 1040.09,71.74 			"/>
			<polygon class="st259" points="1040.09,80.41 942.47,78.4 942.47,74.07 1040.09,76.08 			"/>
			<polygon class="st260" points="1040.09,84.75 942.47,82.74 942.47,78.4 1040.09,80.41 			"/>
			<polygon class="st261" points="1040.09,89.09 942.47,87.07 942.47,82.74 1040.09,84.75 			"/>
			<polygon class="st262" points="1040.09,93.42 942.47,91.41 942.47,87.07 1040.09,89.09 			"/>
			<polygon class="st263" points="1040.09,97.76 942.47,95.74 942.47,91.41 1040.09,93.42 			"/>
			<polygon class="st264" points="1040.09,102.09 942.47,100.08 942.47,95.74 1040.09,97.76 			"/>
			<polygon class="st265" points="1040.09,106.43 942.47,104.42 942.47,100.08 1040.09,102.09 			"/>
			<polygon class="st266" points="1040.09,110.77 942.47,108.75 942.47,104.42 1040.09,106.43 			"/>
			<polygon class="st267" points="1040.09,115.1 942.47,113.09 942.47,108.75 1040.09,110.77 			"/>
			<polygon class="st268" points="1040.09,119.44 942.47,117.42 942.47,113.09 1040.09,115.1 			"/>
			<polygon class="st269" points="1040.09,123.77 942.47,121.76 942.47,117.42 1040.09,119.44 			"/>
			<polygon class="st270" points="1040.09,128.11 942.47,126.1 942.47,121.76 1040.09,123.77 			"/>
			<polygon class="st271" points="1040.09,132.45 942.47,130.43 942.47,126.1 1040.09,128.11 			"/>
			<polygon class="st272" points="1040.09,136.78 942.47,134.77 942.47,130.43 1040.09,132.45 			"/>
			<polygon class="st273" points="996.04,140.21 942.47,139.1 942.47,134.77 1040.09,136.78 1040.09,140.21 			"/>
			<polygon class="st274" points="942.47,139.1 996.04,140.21 942.47,140.21 			"/>
		</g>
	</g>
</g>
<g>
	<g>
		<path class="st275" d="M145.61,139.49h-17.17V53.31l-36.46,86.18H77.72l-36.3-86.01v86.01H24.56V21.88h22.05l38.55,92.37
			l38.71-92.37h21.74V139.49z M130.12,137.8h13.81V23.56h-18.94l-39.83,95.05L45.49,23.56H26.24V137.8h13.49V45.16l39.1,92.65h12.03
			l39.26-92.79V137.8z"/>
	</g>
	<g>
		<path class="st275" d="M251.84,139.49h-81.63V21.88h81v16.86h-63.52v31.64h61.95v16.7h-61.95v36.18h64.14V139.49z M171.89,137.8
			h78.26v-12.87h-64.14V85.39h61.95V72.06h-61.95v-35h63.52V23.56h-77.64V137.8z"/>
	</g>
	<g>
		<path class="st275" d="M310.13,139.49h-37.92V21.88h39.64c11.37,0,20.91,0.9,28.36,2.68c7.5,1.8,13.92,5.02,19.06,9.58
			c5.16,4.57,8.87,10.68,11.04,18.15c2.15,7.4,3.24,16.93,3.24,28.32c0,21.84-4.91,37.29-14.6,45.92
			C349.3,135.12,332.87,139.49,310.13,139.49z M273.9,137.8h36.24c22.32,0,38.37-4.22,47.7-12.54c9.31-8.29,14.03-23.32,14.03-44.66
			c0-11.23-1.07-20.6-3.17-27.85c-2.08-7.16-5.63-13-10.55-17.36c-4.93-4.37-11.1-7.46-18.33-9.2c-7.31-1.75-16.72-2.64-27.96-2.64
			H273.9V137.8z M310.91,124.94h-22.9V36.9h23.99c17.77,0,29.95,3.13,36.18,9.32c6.24,6.19,9.4,17.76,9.4,34.39
			c0,16.33-3.4,27.92-10.11,34.47C340.78,121.62,328.48,124.94,310.91,124.94z M289.7,123.25h21.22c17.11,0,29.02-3.16,35.39-9.38
			c6.37-6.22,9.6-17.41,9.6-33.27c0-16.17-3-27.34-8.9-33.2c-5.91-5.86-17.69-8.83-35-8.83H289.7V123.25z"/>
	</g>
	<g>
		<path class="st275" d="M409.84,139.49h-17.33V21.88h17.33V139.49z M394.2,137.8h13.96V23.56H394.2V137.8z"/>
	</g>
	<g>
		<path class="st275" d="M487.69,141.21c-19.96,0-34.91-5.14-44.42-15.28c-9.49-10.13-14.31-25.37-14.31-45.32
			c0-20.17,5.16-35.47,15.35-45.5C454.5,25.08,469.35,20,488.48,20c17.45,0,31.76,5.18,42.51,15.41l0.63,0.59l-12.6,12.6l-0.59-0.55
			c-8.04-7.43-18.17-11.2-30.09-11.2c-28.07,0-41.71,14.36-41.71,43.9c0,14.63,3.42,25.73,10.18,32.98
			c6.74,7.24,17.4,10.92,31.69,10.92c7.46,0,13.53-1,18.04-2.98c4.53-1.99,8.85-4.91,12.82-8.68l0.58-0.55l12.46,11.94l-0.61,0.61
			C521.03,135.75,506.2,141.21,487.69,141.21z M488.48,21.68c-18.66,0-33.13,4.92-42.98,14.62c-9.85,9.7-14.85,24.6-14.85,44.3
			c0,19.5,4.66,34.36,13.85,44.17c9.18,9.79,23.71,14.75,43.19,14.75c17.69,0,31.91-5.08,42.28-15.11l-10.06-9.64
			c-3.95,3.64-8.23,6.48-12.72,8.45c-4.73,2.07-11.03,3.12-18.72,3.12c-14.78,0-25.86-3.85-32.92-11.45
			c-7.05-7.58-10.63-19.06-10.63-34.13c0-30.25,14.6-45.58,43.39-45.58c12.07,0,22.37,3.73,30.64,11.1l10.24-10.24
			C518.84,26.51,505.14,21.68,488.48,21.68z"/>
	</g>
	<g>
		<path class="st275" d="M568.63,139.49H551.3V21.88h17.33V139.49z M552.99,137.8h13.96V23.56h-13.96V137.8z"/>
	</g>
	<g>
		<path class="st275" d="M647.73,141.36c-39.8,0-59.98-20.44-59.98-60.76c0-40.21,20.18-60.6,59.98-60.6
			c39.8,0,59.98,20.39,59.98,60.6C707.71,120.92,687.53,141.36,647.73,141.36z M647.73,21.68c-19.39,0-34.11,4.94-43.75,14.69
			c-9.65,9.75-14.54,24.63-14.54,44.23c0,19.65,4.89,34.57,14.54,44.35c9.65,9.77,24.37,14.73,43.75,14.73
			c19.39,0,34.11-4.96,43.75-14.73c9.65-9.78,14.54-24.7,14.54-44.35c0-19.6-4.89-34.48-14.54-44.23
			C681.84,26.63,667.12,21.68,647.73,21.68z M647.73,126.66c-29.21,0-44.02-15.39-44.02-45.74s14.81-45.74,44.02-45.74
			c29.31,0,44.18,15.39,44.18,45.74S677.05,126.66,647.73,126.66z M647.73,36.86c-28.49,0-42.34,14.41-42.34,44.06
			s13.85,44.06,42.34,44.06c28.59,0,42.49-14.41,42.49-44.06S676.33,36.86,647.73,36.86z"/>
	</g>
	<g>
		<path class="st275" d="M824.89,139.49h-15.82l-66.31-91.03v91.03h-17.02V21.88h18.48l63.65,87.58V21.88h17.02V139.49z
			 M809.93,137.8h13.28V23.56h-13.65v91.08l-66.19-91.08h-15.94V137.8h13.65V43.29L809.93,137.8z"/>
	</g>
	<g>
		<path class="st275" d="M931.11,139.49h-81.63V21.88h81v16.86h-63.52v31.64h61.95v16.7h-61.95v36.18h64.14V139.49z M851.17,137.8
			h78.26v-12.87h-64.14V85.39h61.95V72.06h-61.95v-35h63.52V23.56h-77.63V137.8z"/>
	</g>
	<g>
		<path class="st275" d="M992.38,141.05c-19.69,0-36.64-4.68-50.37-13.91l-0.69-0.46l8.89-13.6l0.7,0.46
			c12.11,7.9,25.9,11.91,41,11.91c11.47,0,19.74-1.56,24.58-4.64c4.79-3.04,7.12-7.85,7.12-14.7c0-2.66-0.52-5.01-1.55-6.96
			c-1.04-1.98-2.28-3.57-3.7-4.75c-1.41-1.17-3.74-2.25-6.9-3.21c-3.24-0.97-6.13-1.73-8.61-2.25c-2.48-0.52-6.15-1.18-11.23-2.03
			c-6.13-1.04-11.15-1.99-14.91-2.83c-3.79-0.84-7.76-2.09-11.79-3.72c-4.11-1.65-7.31-3.64-9.52-5.9c-2.21-2.26-4.06-5.22-5.5-8.8
			c-1.44-3.58-2.18-7.82-2.18-12.59c0-11.71,3.7-20.26,10.99-25.41c7.2-5.08,18.42-7.66,33.34-7.66c17.5,0,31.87,3.63,42.7,10.78
			l0.7,0.46l-9.54,14.39l-0.7-0.47c-8.9-5.93-20.05-8.93-33.17-8.93c-9.7,0-16.74,1.33-20.91,3.94c-4.1,2.57-6.1,6.69-6.1,12.58
			c0,2.46,0.47,4.59,1.39,6.33c0.94,1.77,2.1,3.24,3.47,4.36c1.37,1.13,3.55,2.19,6.45,3.14c2.98,0.98,5.79,1.76,8.37,2.32
			c2.58,0.57,6.3,1.28,11.07,2.1c4.47,0.73,8.09,1.36,10.73,1.88c2.69,0.53,5.84,1.3,9.37,2.28c3.58,1,6.47,2.02,8.58,3.02
			c2.12,1.01,4.38,2.38,6.7,4.07c2.38,1.73,4.22,3.69,5.47,5.81c1.23,2.09,2.26,4.61,3.06,7.48c0.8,2.87,1.21,6.16,1.21,9.77
			c0,12.01-3.98,21.08-11.84,26.96C1021.32,138.1,1008.97,141.05,992.38,141.05z M943.63,126.2c13.33,8.74,29.73,13.16,48.74,13.16
			c16.22,0,28.23-2.84,35.71-8.44c7.41-5.54,11.16-14.16,11.16-25.61c0-3.46-0.38-6.59-1.14-9.32c-0.76-2.73-1.73-5.11-2.89-7.07
			c-1.13-1.92-2.82-3.7-5.01-5.3c-2.24-1.63-4.41-2.94-6.44-3.91c-2.03-0.96-4.83-1.95-8.31-2.92c-3.49-0.98-6.6-1.73-9.25-2.25
			c-2.63-0.51-6.22-1.14-10.69-1.87c-4.8-0.83-8.55-1.55-11.15-2.12c-2.63-0.58-5.5-1.37-8.53-2.37c-3.11-1.02-5.46-2.17-7-3.44
			c-1.54-1.26-2.85-2.9-3.89-4.87c-1.05-1.99-1.58-4.38-1.58-7.12c0-6.43,2.32-11.15,6.89-14.01c4.45-2.78,11.78-4.2,21.8-4.2
			c13.11,0,24.34,2.94,33.4,8.75l7.67-11.58c-10.47-6.66-24.28-10.04-41.07-10.04c-14.56,0-25.46,2.47-32.37,7.36
			c-6.82,4.82-10.28,12.9-10.28,24.03c0,4.56,0.69,8.59,2.05,11.97c1.36,3.37,3.09,6.15,5.14,8.25c2.04,2.1,5.05,3.95,8.94,5.52
			c3.95,1.59,7.82,2.81,11.52,3.63c3.73,0.83,8.72,1.78,14.82,2.81c5.1,0.85,8.79,1.52,11.3,2.04c2.53,0.53,5.47,1.3,8.75,2.29
			c3.43,1.04,5.88,2.19,7.49,3.52c1.59,1.32,2.98,3.09,4.12,5.26c1.16,2.2,1.74,4.81,1.74,7.74c0,7.37-2.66,12.79-7.9,16.12
			c-5.12,3.25-13.69,4.9-25.48,4.9c-15.14,0-29-3.95-41.21-11.73L943.63,126.2z"/>
	</g>
</g>
<g>
	<g>
		<g>
			<defs>
				<path id="SVGID_21_" d="M25.4,610.04V166.19h162.33l99.43,264.16L387.2,166.19h161.73v443.86h-121V352.48l-99.43,257.57h-92.84
					l-98.24-255.77v255.77H25.4z"/>
			</defs>
			<clipPath id="SVGID_22_">
				<use xlink:href="#SVGID_21_"  style="overflow:visible;"/>
			</clipPath>
			<rect x="25.4" y="166.19" class="st276" width="523.52" height="443.86"/>
			<path class="st276" d="M529.83,388.12c0,67.01-27.16,127.68-71.07,171.59c-21.96,21.96-48.1,39.73-77.13,52v-0.37H192.71v0.37
				c-29.03-12.28-55.18-30.05-77.13-52C71.66,515.79,44.5,455.13,44.5,388.12s27.16-127.68,71.07-171.59
				c21.96-21.96,48.1-39.73,77.13-52v0.37h188.91v-0.37c29.03,12.28,55.18,30.05,77.13,52
				C502.66,260.44,529.83,321.11,529.83,388.12z"/>
			<path class="st277" d="M524.18,388.12c0,65.45-26.53,124.71-69.42,167.6c-21.45,21.45-46.98,38.8-75.34,50.8
				c-14.18,6-29.06,10.65-44.49,13.81v-8.98H239.4v8.98c-15.43-3.16-30.31-7.81-44.49-13.81c-28.36-11.99-53.89-29.35-75.34-50.8
				c-42.89-42.89-69.42-102.15-69.42-167.6s26.53-124.71,69.42-167.6c21.45-21.45,46.98-38.8,75.34-50.8
				c14.18-6,29.06-10.65,44.49-13.81v8.98h95.54v-8.98c15.43,3.16,30.31,7.81,44.49,13.81c28.36,11.99,53.89,29.35,75.34,50.8
				C497.65,263.41,524.18,322.66,524.18,388.12z"/>
			<circle class="st278" cx="287.16" cy="388.12" r="231.38"/>
			<circle class="st279" cx="287.16" cy="388.12" r="225.73"/>
			<circle class="st280" cx="287.16" cy="388.12" r="220.09"/>
			<circle class="st281" cx="287.16" cy="388.12" r="214.45"/>
			<circle class="st282" cx="287.16" cy="388.12" r="208.8"/>
			<circle class="st283" cx="287.16" cy="388.12" r="203.16"/>
			<circle class="st284" cx="287.16" cy="388.12" r="197.52"/>
			<circle class="st285" cx="287.16" cy="388.12" r="191.87"/>
			<circle class="st286" cx="287.16" cy="388.12" r="186.23"/>
			<circle class="st287" cx="287.16" cy="388.12" r="180.59"/>
			<circle class="st288" cx="287.16" cy="388.12" r="174.94"/>
			<circle class="st289" cx="287.16" cy="388.12" r="169.3"/>
			<circle class="st290" cx="287.16" cy="388.12" r="163.66"/>
			<circle class="st291" cx="287.16" cy="388.12" r="158.01"/>
			<circle class="st292" cx="287.16" cy="388.12" r="152.37"/>
			<circle class="st293" cx="287.16" cy="388.12" r="146.73"/>
			<circle class="st294" cx="287.16" cy="388.12" r="141.08"/>
			<circle class="st295" cx="287.16" cy="388.12" r="135.44"/>
			<circle class="st296" cx="287.16" cy="388.12" r="129.8"/>
			<circle class="st297" cx="287.16" cy="388.12" r="124.15"/>
			<circle class="st298" cx="287.16" cy="388.12" r="118.51"/>
			<circle class="st299" cx="287.16" cy="388.12" r="112.87"/>
			<circle class="st300" cx="287.16" cy="388.12" r="107.22"/>
			<circle class="st301" cx="287.16" cy="388.12" r="101.58"/>
			<circle class="st302" cx="287.16" cy="388.12" r="95.94"/>
			<circle class="st303" cx="287.16" cy="388.12" r="90.29"/>
			<circle class="st304" cx="287.16" cy="388.12" r="84.65"/>
			<circle class="st305" cx="287.16" cy="388.12" r="79.01"/>
			<circle class="st306" cx="287.16" cy="388.12" r="73.36"/>
			<circle class="st307" cx="287.16" cy="388.12" r="67.72"/>
			<circle class="st308" cx="287.16" cy="388.12" r="62.08"/>
			<circle class="st309" cx="287.16" cy="388.12" r="56.43"/>
			<circle class="st310" cx="287.16" cy="388.12" r="50.79"/>
			<circle class="st311" cx="287.16" cy="388.12" r="45.15"/>
			<circle class="st312" cx="287.16" cy="388.12" r="39.5"/>
			<circle class="st313" cx="287.16" cy="388.12" r="33.86"/>
			<circle class="st314" cx="287.16" cy="388.12" r="28.22"/>
			<circle class="st315" cx="287.16" cy="388.12" r="22.57"/>
			<circle class="st316" cx="287.16" cy="388.12" r="16.93"/>
			<circle class="st317" cx="287.16" cy="388.12" r="11.29"/>
			<circle class="st318" cx="287.16" cy="388.12" r="5.64"/>
		</g>
	</g>
	<g>
		<g>
			<defs>
				<path id="SVGID_23_" d="M915.5,610.04l-97.64-140.76l-90.45,140.76H589.65l163.53-233.61L607.62,166.19h140.16l79.67,115.01
					l74.27-115.01h137.77L892.14,374.04l164.12,236H915.5z"/>
			</defs>
			<clipPath id="SVGID_24_">
				<use xlink:href="#SVGID_23_"  style="overflow:visible;"/>
			</clipPath>
			<rect x="589.65" y="166.19" class="st319" width="466.62" height="443.86"/>
			<circle class="st319" cx="822.95" cy="388.12" r="227.69"/>
			<circle class="st320" cx="822.95" cy="388.12" r="222.39"/>
			<circle class="st321" cx="822.95" cy="388.12" r="217.1"/>
			<circle class="st322" cx="822.95" cy="388.12" r="211.8"/>
			<circle class="st323" cx="822.95" cy="388.12" r="206.51"/>
			<circle class="st324" cx="822.95" cy="388.12" r="201.21"/>
			<circle class="st325" cx="822.95" cy="388.12" r="195.92"/>
			<circle class="st326" cx="822.95" cy="388.12" r="190.62"/>
			<circle class="st327" cx="822.95" cy="388.12" r="185.33"/>
			<circle class="st328" cx="822.95" cy="388.12" r="180.03"/>
			<circle class="st329" cx="822.95" cy="388.12" r="174.74"/>
			<circle class="st330" cx="822.95" cy="388.12" r="169.44"/>
			<circle class="st331" cx="822.95" cy="388.12" r="164.15"/>
			<circle class="st332" cx="822.95" cy="388.12" r="158.85"/>
			<circle class="st333" cx="822.95" cy="388.12" r="153.56"/>
			<circle class="st334" cx="822.95" cy="388.12" r="148.26"/>
			<circle class="st335" cx="822.95" cy="388.12" r="142.97"/>
			<circle class="st336" cx="822.95" cy="388.12" r="137.67"/>
			<circle class="st337" cx="822.95" cy="388.12" r="132.38"/>
			<circle class="st338" cx="822.95" cy="388.12" r="127.08"/>
			<circle class="st339" cx="822.95" cy="388.12" r="121.79"/>
			<circle class="st340" cx="822.95" cy="388.12" r="116.49"/>
			<circle class="st341" cx="822.95" cy="388.12" r="111.2"/>
			<circle class="st342" cx="822.95" cy="388.12" r="105.9"/>
			<circle class="st343" cx="822.95" cy="388.12" r="100.61"/>
			<circle class="st344" cx="822.95" cy="388.12" r="95.31"/>
			<circle class="st345" cx="822.95" cy="388.12" r="90.02"/>
			<circle class="st346" cx="822.95" cy="388.12" r="84.72"/>
			<circle class="st347" cx="822.95" cy="388.12" r="79.43"/>
			<circle class="st348" cx="822.95" cy="388.12" r="74.13"/>
			<circle class="st349" cx="822.95" cy="388.12" r="68.84"/>
			<circle class="st350" cx="822.95" cy="388.12" r="63.54"/>
			<circle class="st351" cx="822.95" cy="388.12" r="58.25"/>
			<circle class="st352" cx="822.95" cy="388.12" r="52.95"/>
			<circle class="st353" cx="822.95" cy="388.12" r="47.66"/>
			<circle class="st354" cx="822.95" cy="388.12" r="42.36"/>
			<circle class="st355" cx="822.95" cy="388.12" r="37.07"/>
			<circle class="st356" cx="822.95" cy="388.12" r="31.77"/>
			<circle class="st357" cx="822.95" cy="388.12" r="26.48"/>
			<circle class="st358" cx="822.95" cy="388.12" r="21.18"/>
			<circle class="st359" cx="822.95" cy="388.12" r="15.89"/>
			<circle class="st360" cx="822.95" cy="388.12" r="10.59"/>
			<circle class="st361" cx="822.95" cy="388.12" r="5.3"/>
		</g>
	</g>
</g>
</svg>
